<svg id="OBJECTS" xmlns="http://www.w3.org/2000/svg" viewBox="0 0 153.85 281.97"><defs><style>.cls-1{fill:#e91e63;}.cls-2{fill:#fff;}</style></defs><title>4729086</title><path class="cls-1" d="M225.15,215.62h0c8.08,0,14.7,5.87,14.64,13.11a165.35,165.35,0,0,1-2.58,29.88c-1.16,6.53-9.39,10.56-14.76,7.3l-.15-.1a7.42,7.42,0,0,1-3.42-7.3,318.35,318.35,0,0,0,1.87-38.93A4.18,4.18,0,0,1,225.15,215.62Z" transform="translate(-173.08 -70.61)"/><path class="cls-1" d="M280.54,91.3a435.22,435.22,0,0,0-.83,48.86c.4,4-2.8,7.29-7.1,7.29h0c-5.77,0-11.23-4.38-11.62-9.79-1.11-19.91-.54-38.74,3.08-58.41.72-3.2,4.61-5.37,7.37-4.13l.16.08A15.75,15.75,0,0,1,280.54,91.3Z" transform="translate(-173.08 -70.61)"/><path class="cls-1" d="M308.17,128.77v86.71A63.4,63.4,0,0,1,302,243.73c-2.34,4.63-8.48,2.8-8.27-2.57.28-10.2.37-20.34.3-30.55a2,2,0,0,0-2.57-2l-2.19.93a2.87,2.87,0,0,0-1.91,2.91c.14,13.62-.19,27.05-1.2,40.63a19.46,19.46,0,0,1-12.31,16l-.12,0a70.21,70.21,0,0,1-6.79,2.27,75.81,75.81,0,0,1-8.19,1.69c-1.78.24-3.59.41-5.37.52-1.12.06-2.25.1-3.37.1h0c-4.72,0-7.23-3.83-6-8.55,12.6-62.18-17.07-121.54-5.55-183.77a2.12,2.12,0,0,0-2.9-2.62l-2.25.78a3.62,3.62,0,0,0-2.37,2.62c-6.47,40.39,1.11,77.32,7.17,117.18.67,4.71-3,8.53-8.14,8.53h0c-5.13,0-9.64-3.82-10.13-8.53-1.06-10-2.27-20-3.49-30a2.66,2.66,0,0,0-3.58-2.16l-3.45,1.31a1,1,0,0,0-.61,1c2.21,24.72,3.54,48.71,2.79,73.57-.2,4.77-7.65,6.48-10.08,2.46-6-10-8.22-17.85-9.55-30V128.77a63.32,63.32,0,0,1,6.28-28.44c2.33-4.56,8.39-2.76,8.18,2.55a501.88,501.88,0,0,0,1.35,54.86,1.78,1.78,0,0,0,2.42,1.52l1.29-.51a5,5,0,0,0,3.13-5.16,353,353,0,0,1-.63-62.37,19.47,19.47,0,0,1,12.25-16h0a63.35,63.35,0,0,1,7-2.34,44.26,44.26,0,0,1,8.19-1.69c1.72-.24,3.46-.41,5.19-.51,1.18-.07,2.37-.11,3.55-.11h0c4.7,0,7.23,3.85,6,8.55-12.56,61.93,16.84,121,5.73,183a2.15,2.15,0,0,0,2.95,2.63h0a7.68,7.68,0,0,0,5-5.69c4.61-32.71.66-63-4.81-95.32-.79-4.72,2.54-8.54,7.47-8.54h0a10.18,10.18,0,0,1,10,8.54c1.43,11.81,2.9,23.62,4.16,35.45a1.78,1.78,0,0,0,2.27,1.65l1.51-.63a5,5,0,0,0,2.82-5.17c-2.84-33.21-5.71-65.63-4.31-99,.17-3.07,4.59-4.38,6.56-1.93a58,58,0,0,1,7.76,12.38A59.91,59.91,0,0,1,308.17,128.77Z" transform="translate(-173.08 -70.61)"/><path class="cls-2" d="M278.28,352.58H220.63v-7.51h25.06V293.89a76.84,76.84,0,0,1-72.61-76.81V191h7.51v26.13a69.41,69.41,0,0,0,138.82,0V191h7.51v26.13a77,77,0,0,1-73.71,76.84v51.15h25.07Zm-56.72-.94h55.78V346H252.27V293l.45,0A76.06,76.06,0,0,0,326,217.08V191.89h-5.63v25.19a70.35,70.35,0,0,1-140.7,0V191.89H174v25.19A75.9,75.9,0,0,0,246.19,293l.44,0v53H221.56Z" transform="translate(-173.08 -70.61)"/></svg>